<?xml version="1.0" encoding="utf-8"?>
<!-- Generator: Adobe Illustrator 23.0.4, SVG Export Plug-In . SVG Version: 6.00 Build 0)  -->
<svg version="1.1" id="Layer_1" xmlns="http://www.w3.org/2000/svg" xmlns:xlink="http://www.w3.org/1999/xlink" x="0px" y="0px"
	 viewBox="0 0 595.8 595.3" style="enable-background:new 0 0 595.8 595.3;" xml:space="preserve">
<style type="text/css">
	.st0{fill:#FFFFFF;}
	.st1{fill:#DB1762;}
</style>
<circle class="st0" cx="297.9" cy="297.9" r="297.9"/>
<g>
	<path class="st1" d="M311.4,519.9c-4.5-18.5-17-32.1-32.7-39.9c-74.2-37-210.6-61.1-246.4-206.6C21,227,26.6,180.1,45.4,140
		c-8.9,14.3-16.7,29.5-23.2,45.2c-0.6,1.5-1.2,3.3-1.8,4.8c-1.2,3-2.4,6.3-3.6,9.5c-0.6,1.5-1.2,3.3-1.8,4.8c-1.2,3.3-2.1,6.5-3,9.8
		c-0.6,1.8-0.9,3.3-1.5,5.1s-0.9,3.3-1.5,5.1c-0.9,3.3-1.5,6.8-2.4,10.1c-0.3,1.8-0.6,3.3-1.2,5.1c-0.3,1.8-0.6,3.3-0.9,5.1
		c-0.3,0.9-0.3,2.1-0.6,3c-0.3,1.2-0.3,2.1-0.6,3.3c0,0.9-0.3,1.8-0.3,2.7c0,1.5,0,2.7-0.3,3.9c-0.3,1.8-0.6,3.6-0.6,5.4
		c-0.3,1.5-0.3,3-0.6,4.8c-0.3,2.1-0.3,4.5-0.6,6.5c-0.3,2.7-0.3,5.1-0.6,7.7c0,1.5-0.3,3-0.3,4.8v0.9v4.8v5.7v7.1v4.2
		c0,1.2,0,2.4,0.3,3.6v2.1c0,1.8,0.3,3.3,0.3,5.1c0,0.6,0,1.5,0.3,2.1c0.3,2.1,0.3,4.2,0.6,6.3s0.6,4.2,0.6,6.5c0,0.9,0.3,1.8,0.3,3
		c0.3,1.5,0.3,2.7,0.6,4.2s0.3,3,0.6,4.5c0,0.6,0,1.2,0.3,1.5l0.9,4.5c0.3,1.2,0.3,2.4,0.6,3.6S6,358.8,6,360c0.3,0.9,0.3,2.1,0.6,3
		c0.3,1.5,0.6,2.7,0.9,4.2c0.6,2.1,0.9,3.9,1.5,6c0.6,1.8,0.9,3.3,1.5,5.1c3,10.7,6.5,21.1,10.4,31.3l1.8,4.5
		c0.9,1.8,1.5,3.9,2.4,5.7s1.5,3.6,2.4,5.1c0,0.3,0.3,0.6,0.3,0.6c0.6,1.5,1.5,3,2.1,4.2c0.3,0.9,0.9,1.8,1.5,2.7
		c0.6,1.2,1.2,2.4,2.1,3.9c0.9,1.8,1.8,3.6,2.7,5.4c0.6,1.5,1.5,2.7,2.4,4.2c0.3,0.6,0.9,1.2,1.2,2.1c0.6,0.9,1.2,2.1,1.8,3
		c0.6,1.2,1.5,2.7,2.4,3.9c1.2,1.8,2.4,3.9,3.6,5.7s2.4,3.6,3.6,5.7c3.9,5.7,7.7,11,11.6,16.1c1.5,1.8,2.7,3.6,4.2,5.1
		c1.2,1.2,2.1,2.7,3.3,3.9l5.4,6.3c1.5,1.5,3,3.3,4.5,4.8s3,3.3,4.5,4.8c18.5,19,39.6,35.4,62.6,48.8
		c34.5,20.2,73.6,33.6,115.3,38.7c0.3,0,0.6,0,0.9-0.3c0.6-0.3,1.8-0.3,3-0.6h0.6C299.5,584.5,319.5,552,311.4,519.9L311.4,519.9z"
		/>
	<path class="st1" d="M298,0c-2.1,0-4.5,0-6.5,0c-1.2,0-2.4,0-3.6,0c-1.8,0-3.6,0-5.4,0.3c-2.1,0-4.2,0.3-6.3,0.3
		c-0.6,0-1.2,0-1.8,0.3c-2.4,0.3-4.5,0.3-6.8,0.6c-1.8,0.3-3.3,0.3-5.1,0.6c-1.2,0-2.4,0.3-3.9,0.6s-3.3,0.3-4.8,0.6
		s-3.3,0.6-4.8,0.9c-3.3,0.6-6.3,1.2-9.5,1.8c-1.5,0.3-3.3,0.6-4.8,0.9c-1.8,0.3-3.6,0.9-5.7,1.2c-1.8,0.3-3.3,0.9-5.1,1.2
		c-0.6,0-1.2,0.3-1.8,0.6c-3,0.9-6,1.5-8.9,2.4c-0.3,0-0.9,0.3-1.5,0.3c-2.7,0.9-5.1,1.5-7.7,2.4c-0.3,0-0.6,0-0.6,0.3
		c-1.8,0.6-3.9,1.2-5.7,2.1c-0.3,0-0.9,0.3-1.2,0.3c-0.9,0.3-1.5,0.6-2.4,0.9h-0.3c-1.8,0.9-3.3,1.5-5.1,2.4c-0.3,0-0.3,0-0.6,0.3
		c-0.6,0.3-0.9,0.3-1.5,0.6c-2.1,0.9-4.2,1.8-6.3,2.7c-2.4,0.9-4.5,2.1-6.8,3c-0.3,0-0.6,0.3-0.6,0.3c-0.3,0-0.6,0.3-0.9,0.3
		c-1.2,0.6-2.7,1.2-3.9,1.8c-1.8,0.9-3.3,1.5-5.1,2.4c-1.5,0.6-3,1.5-4.5,2.4c-0.3,0.3-0.6,0.3-1.2,0.6c-2.4,1.2-4.5,2.4-6.5,3.6
		c9.2-3.9,18.8-7.1,28.9-9.5C287.8,3,397.2,68.8,423.7,176.9c6,24.4,7.1,49.1,4.5,72.7c-0.9,5.7-3,13.4-6.3,14
		c-3.9,0.9-6.8-3.3-11.3-9.5l-0.3-0.3c-0.6-0.6-0.9-1.2-1.5-2.1c-0.6-0.6-0.9-1.2-1.5-1.8c-0.6-0.9-1.2-1.5-2.1-2.4c0,0,0,0-0.3-0.3
		c0-0.3-0.3-0.3-0.3-0.6c-3.9-4.5-7.4-8-11-10.4c-22-18.2-52.2-25.9-82.2-18.5c-50.6,12.5-84.3,51.2-72.1,101.9
		c17.6,71.5,127.8,60.2,154.4,166.3v0.3v0.3l0,0c9.8,40.2-6.5,80.8-38.4,103.4c4.8-0.9,9.5-2.1,14.3-3.3c2.4-0.6,4.8-1.2,7.1-1.8
		c4.8-1.2,9.2-2.7,14-4.2c6.8-2.4,13.7-4.8,20.2-7.4c7.7-3.3,15.5-6.8,23.2-10.7c5.7-3,11.3-6,16.7-9.2c1.8-1.2,3.6-2.1,5.4-3.3
		s3.6-2.4,5.4-3.6l5.4-3.6c1.8-1.2,3.6-2.4,5.1-3.6c1.8-1.2,3.3-2.4,5.1-3.6c0,0,0,0,0.3-0.3c1.5-1.2,3.3-2.4,4.8-3.6
		c3.3-2.7,6.5-5.4,9.8-8c1.5-1.5,3.3-2.7,4.8-4.2s3-2.7,4.8-4.2c1.5-1.5,3-2.7,4.5-4.2c0,0,0.3,0,0.3-0.3c1.5-1.5,3-3,4.5-4.5
		l4.5-4.5c4.2-4.5,8.3-9.2,12.5-14c1.5-1.5,2.7-3.3,3.9-4.8c0.9-1.2,1.8-2.1,2.7-3.3c0.9-0.9,1.5-2.1,2.4-3c1.2-1.5,2.1-2.7,3-4.2
		s2.1-2.7,3-4.2c0.3-0.6,0.6-1.2,1.2-1.5c0.9-1.5,1.8-2.7,2.7-4.2c1.2-1.8,2.4-3.6,3.6-5.4c5.1-8,9.8-16.4,14.3-25
		c0.9-1.5,1.5-3,2.4-4.5c0.6-1.5,1.5-3.3,2.1-4.8s1.5-3,2.1-4.5c0.6-1.8,1.5-3.3,2.1-5.1c0.9-2.4,1.8-4.5,2.7-6.8v-0.3
		c0.9-2.1,1.8-4.2,2.4-6.5c0.6-2.1,1.5-3.9,2.1-6c0.3-0.9,0.6-1.8,0.9-3c0.6-1.5,1.2-3.3,1.5-5.1c0.6-1.8,0.9-3.3,1.5-5.1
		c0.6-1.5,0.9-3,1.2-4.5c0-0.6,0.3-0.9,0.3-1.5c0.3-1.5,0.9-2.7,1.2-4.2c0.3-0.9,0.6-2.1,0.6-3c0.3-1.5,0.6-3,0.9-4.5
		c0.9-4.2,1.8-8.3,2.7-12.8c0.3-1.5,0.6-3,0.6-4.5c0.3-1.8,0.6-3.6,0.9-5.4c0.3-1.5,0.3-3,0.6-4.5c0-0.9,0.3-1.5,0.3-2.4
		c0.3-1.8,0.6-3.9,0.6-6c0-0.3,0-0.3,0-0.6c0.3-1.8,0.3-3.6,0.6-5.1c0-1.5,0.3-3,0.3-4.5c0-0.6,0-1.2,0-1.8c0-1.5,0.3-3,0.3-4.5
		c0-0.9,0-2.1,0-3c0-1.5,0-3,0-4.5c0-2.4,0-4.5,0-6.8C596,133.4,462.5,0,298,0L298,0z"/>
</g>
</svg>
